PathFileType	4	(X/Y/Z)	./resultDataOpenSim/trcMotMarkerGrf/sub09/qtm-05-03.trc
DataRate	CameraRate	NumFrames	NumMarkers	Units	OrigDataRate	OrigDataStartFrame	OrigNumFrames
250.000000	250.000000	13	24	m	250.000000	320	511
Frame#	Time	L.Toe.Tip			R.Toe.Tip			L.Ankle.Lat			R.Ankle.Lat			L.Ankle.Med			R.Ankle.Med			L.Heel			R.Heel			L.Knee.Lat			R.Knee.Lat			L.Knee.Med			R.Knee.Med			L.Thigh.Upper			R.Thigh.Upper			L.ASIS			R.ASIS			V.Sacral			L.Acromium			R.Acromium			C7			L.Elbow			R.Elbow			L.Wrist.Lat			R.Wrist.Lat
		X1	Y1	Z1	X2	Y2	Z2	X3	Y3	Z3	X4	Y4	Z4	X5	Y5	Z5	X6	Y6	Z6	X7	Y7	Z7	X8	Y8	Z8	X9	Y9	Z9	X10	Y10	Z10	X11	Y11	Z11	X12	Y12	Z12	X13	Y13	Z13	X14	Y14	Z14	X15	Y15	Z15	X16	Y16	Z16	X17	Y17	Z17	X18	Y18	Z18	X19	Y19	Z19	X20	Y20	Z20	X21	Y21	Z21	X22	Y22	Z22	X23	Y23	Z23	X24	Y24	Z24

320	1.276	0.16010132	-0.041875521	0.049962514	1.0440145	0.041212103	0.16201655	0.12770556	0.10552487	-0.030749092	0.89613462	0.054041266	0.20030253	0.15684438	0.10274842	0.062640172	0.9019828	0.091474254	0.10794978	0.067680987	0.14469234	0.011980973	0.82653556	0.032490427	0.15347643	0.44548822	0.38524346	-0.053745289	0.88835468	0.50425675	0.25178121	0.44974079	0.36696932	0.070754856	0.87810383	0.49243717	0.12687625	0.57489198	0.77279601	-0.055433467	0.62122136	0.80940579	0.3154584	0.68521331	0.84738063	-0.0065759146	0.68820717	0.8842261	0.23047552	0.52864464	0.9283256	0.1206599	0.73867376	1.3098759	-0.039124095	0.69310849	1.321357	0.28549337	0.64925447	1.370297	0.11479922	0.62251557	0.94949323	-0.11956473	0.50940035	1.0083525	0.35399786	0.86859665	0.84577406	-0.054976198	0.59996678	0.75109661	0.39767679
321	1.28	0.16231945	-0.039088683	0.04878908	1.0441567	0.041038964	0.16180894	0.13501099	0.11057191	-0.030785407	0.89644018	0.053991426	0.20009834	0.16429345	0.10661385	0.062566097	0.90227559	0.091304055	0.10768689	0.076224606	0.15145333	0.012403873	0.82658723	0.032524621	0.15340513	0.45749014	0.38409195	-0.054241993	0.89351115	0.50373317	0.25149509	0.46195635	0.36542719	0.070054134	0.88339911	0.49206637	0.12656541	0.58244618	0.77280183	-0.054641831	0.62766649	0.81005463	0.31618614	0.69185817	0.84774592	-0.0055826447	0.69458291	0.88491587	0.23146324	0.53528392	0.92922493	0.12055166	0.74558353	1.3105555	-0.038657947	0.69971436	1.3221402	0.28582946	0.65598845	1.3710543	0.1151352	0.62826629	0.95082281	-0.11922517	0.51698795	1.0086326	0.35450229	0.87310748	0.84400059	-0.054958001	0.60862475	0.75153555	0.39767551
322	1.284	0.16459929	-0.036078273	0.047424644	1.0442299	0.040919288	0.16151965	0.14271758	0.11592139	-0.030814948	0.89669225	0.053955787	0.19991704	0.17196374	0.11065578	0.062602661	0.90242541	0.091179003	0.10750044	0.085135882	0.15845279	0.012966106	0.82657628	0.032546828	0.15338893	0.46965923	0.38294828	-0.054611588	0.89857108	0.50331484	0.25122593	0.47470646	0.36422763	0.069211493	0.8884139	0.49174839	0.12626969	0.58989188	0.77290408	-0.053931225	0.6340311	0.8106493	0.31689803	0.69826687	0.84818815	-0.0046801009	0.70089128	0.88563953	0.23247169	0.54125899	0.93042415	0.1194055	0.75239219	1.3112906	-0.038236798	0.70627695	1.3229819	0.28614372	0.66261987	1.3719054	0.11540309	0.63400486	0.95218851	-0.11886997	0.52444249	1.0089497	0.35496643	0.87756166	0.84222139	-0.055009324	0.61726177	0.75203098	0.3976285
323	1.288	0.16699113	-0.03265984	0.045887698	1.044251	0.04082745	0.16129563	0.15083976	0.12158278	-0.030896171	0.89690011	0.053925692	0.19974481	0.17985964	0.11487738	0.062711755	0.9024836	0.091091971	0.1073708	0.094406626	0.16566502	0.013626224	0.82652745	0.032556144	0.15338799	0.48198701	0.38184242	-0.054854898	0.90355176	0.50300113	0.25099329	0.4876661	0.36324008	0.0684326	0.89315085	0.49152519	0.12599909	0.59722482	0.77308481	-0.053279356	0.64031509	0.81122796	0.31758019	0.70442685	0.84872402	-0.0038575233	0.7071324	0.88642236	0.2334772	0.54651868	0.93171854	0.11778675	0.75909163	1.3120832	-0.0378663	0.71279081	1.3238853	0.28644264	0.66915064	1.3728407	0.11562461	0.63973411	0.95357498	-0.11849027	0.53165951	1.0092717	0.35532598	0.88195789	0.84043695	-0.055123254	0.62590425	0.75260972	0.39753789
324	1.292	0.16954411	-0.028689216	0.044244487	1.0442383	0.040746549	0.16119054	0.15927261	0.12752401	-0.031022847	0.89703234	0.053890211	0.19959285	0.18797979	0.11928544	0.062850814	0.90251555	0.091044336	0.10728404	0.10400448	0.17305855	0.014341485	0.8264669	0.032555033	0.1533903	0.49447504	0.38081055	-0.05499388	0.90843018	0.50285024	0.25077618	0.50044407	0.36229727	0.06797921	0.89763094	0.49142423	0.12576084	0.60442802	0.77331115	-0.052617617	0.64650188	0.81182918	0.31821609	0.71037098	0.84938733	-0.003074385	0.7133095	0.88728947	0.23445929	0.55128146	0.93290021	0.11650128	0.7656738	1.3129413	-0.037545572	0.7192444	1.3248613	0.28673091	0.675602	1.3738319	0.11581297	0.64545332	0.95496854	-0.11807484	0.53858038	1.0095979	0.35554435	0.8862943	0.83865147	-0.055277814	0.63455339	0.75329192	0.39740494
325	1.296	0.17233563	-0.024162975	0.042615008	1.0442134	0.040673363	0.16114441	0.1678321	0.13367372	-0.031120334	0.8970033	0.053848801	0.19950091	0.19631076	0.12389991	0.062978137	0.90256207	0.091041771	0.10723262	0.1138842	0.18059926	0.015067887	0.82641285	0.032552698	0.15340308	0.50709248	0.37987618	-0.055027233	0.91317525	0.50287679	0.25054855	0.51296342	0.36137298	0.067901977	0.90188405	0.49143757	0.12555947	0.611493	0.77356728	-0.051943985	0.65257873	0.8124891	0.31879642	0.71620867	0.85020836	-0.0022857363	0.71943356	0.88825981	0.23539874	0.55600032	0.9339447	0.11593957	0.77213504	1.3138751	-0.037268401	0.72562714	1.3259201	0.28700734	0.68198706	1.3748619	0.11598559	0.65115695	0.95637101	-0.11762241	0.54530718	1.0099679	0.35568364	0.89056327	0.83687436	-0.055466636	0.64318828	0.75407776	0.39722899
326	1.3	0.17548653	-0.019145253	0.041170581	1.0441935	0.040610563	0.16109066	0.17639377	0.13997223	-0.031127475	0.8967647	0.053806736	0.19949845	0.20483204	0.1287472	0.063058363	0.90263401	0.091081775	0.10720581	0.12399767	0.18825005	0.015743526	0.82637262	0.032559336	0.15342628	0.51978793	0.3790552	-0.054931798	0.9177771	0.50298705	0.25031923	0.52539005	0.36055779	0.068088426	0.90594604	0.49152055	0.12539441	0.61842957	0.77386376	-0.051354479	0.65854978	0.81324151	0.31932219	0.72209154	0.85117654	-0.0014959211	0.72551383	0.88933411	0.23627442	0.56113436	0.93498251	0.11599315	0.77847456	1.3148885	-0.037026648	0.73193587	1.327061	0.2872686	0.68829277	1.3759487	0.11616782	0.65683542	0.95779591	-0.11713974	0.55203418	1.0104318	0.35585812	0.89475388	0.83511521	-0.055711055	0.65183754	0.75497772	0.39703233
327	1.304	0.17912086	-0.013640298	0.040085725	1.0441842	0.040557615	0.16101964	0.18496977	0.14637371	-0.031045875	0.89644378	0.053756608	0.1995398	0.21353112	0.13384964	0.063075438	0.90272984	0.091146394	0.10718422	0.13430182	0.19596831	0.016280922	0.82634566	0.032576157	0.15344265	0.53251697	0.37836979	-0.054696613	0.92222858	0.50306181	0.25011145	0.53784362	0.3599318	0.068441156	0.90986141	0.4916124	0.1252586	0.62524867	0.77422629	-0.050930644	0.66442493	0.81411362	0.31979853	0.72810281	0.85224747	-0.00075527364	0.73155182	0.89049696	0.2370667	0.56681211	0.93612436	0.11636943	0.78469361	1.3159782	-0.036815635	0.73817184	1.3282727	0.28751375	0.69450377	1.3771179	0.11636944	0.66247952	0.95925351	-0.11663161	0.55884914	1.0110113	0.35611757	0.89886618	0.83337839	-0.056026849	0.66062309	0.75604318	0.39687698
328	1.308	0.18330741	-0.0076156695	0.039472807	1.0441829	0.040509518	0.16094505	0.19367002	0.15279568	-0.030918378	0.89626344	0.053688002	0.19952811	0.22241062	0.13922337	0.063036479	0.9028471	0.091209334	0.10714718	0.14476626	0.20370956	0.016605106	0.82632806	0.032594745	0.15343179	0.54527071	0.37785584	-0.054343135	0.92651062	0.50303762	0.24993019	0.5503884	0.35949966	0.068902875	0.91367973	0.49166124	0.12513939	0.63196467	0.7746856	-0.050643594	0.67020511	0.81512188	0.32022737	0.73419912	0.85339362	-9.5625735e-05	0.73754703	0.89173215	0.2377635	0.57281996	0.93738565	0.11682741	0.7908013	1.3171392	-0.036643273	0.74433558	1.3295459	0.28774392	0.70062599	1.3783736	0.11657536	0.66808747	0.96074351	-0.11609928	0.56570159	1.0116995	0.35643159	0.90291043	0.83166253	-0.056409447	0.6696424	0.75732514	0.39681129
329	1.312	0.18804775	-0.0010802659	0.039367558	1.0441848	0.040462718	0.16086623	0.20261702	0.15914936	-0.030816091	0.8962926	0.053615367	0.19942121	0.23147692	0.1448745	0.062958914	0.90298157	0.091250848	0.10708427	0.15537361	0.21143477	0.016708736	0.82631468	0.032607188	0.15338748	0.55806	0.37754722	-0.053907136	0.93061088	0.50290131	0.24976705	0.56306928	0.35923287	0.069437887	0.91744013	0.49163949	0.12502515	0.63860129	0.77527546	-0.050387011	0.67588797	0.81627214	0.32060762	0.74028444	0.85461968	0.00048839024	0.74350602	0.89303243	0.23836469	0.57889846	0.93873722	0.11725305	0.79682159	1.3183667	-0.036532687	0.7504308	1.3308836	0.28796076	0.70667132	1.3797102	0.11677073	0.67366805	0.96226372	-0.11554404	0.57251602	1.012483	0.35675412	0.90688828	0.82996394	-0.056853971	0.67875952	0.75878308	0.39677108
330	1.316	0.19332767	0.0059171295	0.039775512	1.0441828	0.040419222	0.16077726	0.21188835	0.16542195	-0.030838074	0.89641519	0.053569514	0.19926007	0.24073367	0.15079567	0.062858686	0.90312515	0.09126611	0.10699854	0.16611949	0.21912462	0.016610956	0.82629871	0.032614312	0.15331823	0.57086702	0.3774513	-0.053415939	0.93454313	0.50266605	0.24962086	0.57583224	0.35912629	0.070052868	0.92114722	0.4915431	0.12491783	0.64517334	0.77603307	-0.050059645	0.68148441	0.81756056	0.32094013	0.74630023	0.85593527	0.0010048681	0.74944074	0.89439544	0.23888044	0.58491724	0.94015124	0.11762385	0.80277854	1.31966	-0.036500381	0.75646482	1.3322959	0.28816398	0.71264019	1.3811216	0.11695469	0.67923398	0.96381806	-0.11496658	0.57924774	1.0133529	0.35705813	0.9107807	0.828285	-0.057362745	0.68764582	0.76029061	0.39659901
331	1.32	0.19916895	0.013310714	0.040702514	1.0441667	0.040383378	0.16068271	0.22151016	0.17166041	-0.03105624	0.89650882	0.053566194	0.19910959	0.2501846	0.15697204	0.06274683	0.90326473	0.091260991	0.10690039	0.17702372	0.22680434	0.016189826	0.82627157	0.032622193	0.15323484	0.58365463	0.37755511	-0.052884739	0.93834549	0.50236088	0.24950928	0.58857143	0.35919941	0.070775348	0.92476593	0.49138148	0.12483689	0.65167474	0.77698288	-0.049624993	0.68702312	0.81897359	0.32123239	0.75223822	0.85733925	0.0014551037	0.75535895	0.89581477	0.23932303	0.59085687	0.94160844	0.11795131	0.80865852	1.3210286	-0.036523851	0.76244264	1.3337887	0.28835133	0.71852349	1.3825964	0.11713231	0.68478876	0.96541226	-0.11436755	0.58588168	1.0143028	0.3573373	0.9145589	0.82663954	-0.057935078	0.69609464	0.76176024	0.39619854
332	1.324	0.20561072	0.02102307	0.042126498	1.0441268	0.040357017	0.16059305	0.23148727	0.17789419	-0.031442905	0.89653444	0.053597687	0.19900685	0.25982461	0.16339016	0.06262484	0.90338399	0.091243334	0.10679906	0.18811753	0.23452667	0.015160309	0.82622628	0.032633219	0.15314295	0.59643162	0.37784387	-0.052310507	0.94205234	0.50201739	0.24945109	0.60125364	0.35947863	0.071606594	0.92825765	0.49117016	0.12480171	0.65809289	0.77810507	-0.049138793	0.69253769	0.82048886	0.32149732	0.75811372	0.85882884	0.0018490258	0.76126082	0.89727817	0.23970194	0.5967338	0.94310107	0.11824873	0.81441232	1.3224874	-0.036552075	0.76836562	1.3353567	0.288521	0.72431827	1.3841286	0.11730945	0.69032086	0.96705107	-0.11374928	0.59242434	1.0153263	0.35759713	0.91821011	0.82504688	-0.058562318	0.70416167	0.76320629	0.39560307
